Saving.Private.Ryan.1998.1080p.BluRay.DTS.mkv
*********************************************

TiTLE......  Saving Private Ryan
YEAR.......  1998
GENRE......  Action | Drama | War 
iMDB RATE..  User Rating: 8.5/10 (258,940 votes)
iMDB URL...  http://www.imdb.com/title/tt0120815/
*************************************************
Won 5 Oscars. Another 52 wins & 53 nominations 

Video
Duration                         : 2h 48mn
Overall bit rate                 : 6 910 Kbps
Width                            : 1 920 pixels
Height                           : 1 032 pixels
Display aspect ratio             : 1.860
Frame rate                       : 23.976 fps
Stream size                      : 6.18 GiB (76%)

Audio
Format                           : DTS
Format/Info                      : Digital Theater Systems
Bit rate                         : 1 510 Kbps
Channel(s)                       : 6 channels
Channel positions                : Front: L C R, Surround: L R, LFE
Sampling rate                    : 48.0 KHz
Resolution                       : 24 bits
Stream size                      : 1.78 GiB (22%)
Language                         : English

Subtitles: English, French, Dutch, Italian
******************************************
Format                           : ASS
Codec ID                         : S_TEXT/ASS
Codec ID/Info                    : Advanced Sub Station Alpha
*************************************************************

